<?xml version="1.0"?>
<!DOCTYPE lmms-project>
<lmms-project creator="LMMS" version="1.0" type="song" creatorversion="1.2.2">
  <head timesig_denominator="4" masterpitch="12" timesig_numerator="4" bpm="80" mastervol="116"/>
  <song>
    <trackcontainer x="17" visible="1" minimized="0" width="2302" height="351" y="1" type="song" maximized="0">
      <track solo="0" muted="0" type="2" name="Sample track">
        <sampletrack vol="6.7" pan="0">
          <fxchain numofeffects="0" enabled="0"/>
        </sampletrack>
        <sampletco pos="0" src="D:/Users/duong.lc/Documents/GitHub/Y2S1-Indie-Game/Assets/Assets/Audio/official audio/Cyberpunk Edgerunners (Hardstyle) - Extended.wav" len="10625" sample_rate="44100" muted="0"/>
      </track>
      <track solo="0" muted="0" type="0" name="hihat_closed01.ogg">
        <instrumenttrack vol="6.4" pitch="0" pan="0" pitchrange="1" fxch="0" usemasterpitch="1" basenote="57">
          <instrument name="audiofileprocessor">
            <audiofileprocessor amp="100" sframe="0" stutter="0" lframe="0" interp="1" src="drums/hihat_closed01.ogg" reversed="0" looped="0" eframe="1"/>
          </instrument>
          <eldata fwet="0" fcut="14000" fres="0.5" ftype="0">
            <elvol sustain="0.5" lamt="0" lspd_syncmode="0" rel="0.1" dec="0.5" hold="0.5" latt="0" x100="0" lspd_numerator="4" userwavefile="" lspd_denominator="4" pdel="0" lpdel="0" ctlenvamt="0" amt="0" lspd="0.1" lshp="0" att="0"/>
            <elcut sustain="0.5" lamt="0" lspd_syncmode="0" rel="0.1" dec="0.5" hold="0.5" latt="0" x100="0" lspd_numerator="4" userwavefile="" lspd_denominator="4" pdel="0" lpdel="0" ctlenvamt="0" amt="0" lspd="0.1" lshp="0" att="0"/>
            <elres sustain="0.5" lamt="0" lspd_syncmode="0" rel="0.1" dec="0.5" hold="0.5" latt="0" x100="0" lspd_numerator="4" userwavefile="" lspd_denominator="4" pdel="0" lpdel="0" ctlenvamt="0" amt="0" lspd="0.1" lshp="0" att="0"/>
          </eldata>
          <chordcreator chordrange="1" chord="0" chord-enabled="0"/>
          <arpeggiator arpmiss="0" arprange="1" arptime_numerator="4" arpdir="0" arp-enabled="0" arpcycle="0" arp="0" arpmode="0" arptime_denominator="4" arpgate="100" arpskip="0" arptime_syncmode="0" arptime="200"/>
          <midiport outputcontroller="0" outputprogram="1" fixedoutputnote="-1" writable="0" fixedinputvelocity="-1" fixedoutputvelocity="-1" basevelocity="63" readable="0" inputcontroller="0" inputchannel="0" outputchannel="1"/>
          <fxchain numofeffects="0" enabled="0"/>
        </instrumenttrack>
        <pattern pos="0" muted="0" type="1" name="hihat_closed01.ogg" steps="16">
          <note vol="100" pos="702" key="13" pan="0" len="6"/>
          <note vol="100" pos="714" key="24" pan="0" len="6"/>
          <note vol="100" pos="738" key="24" pan="0" len="6"/>
          <note vol="100" pos="762" key="0" pan="0" len="6"/>
          <note vol="100" pos="786" key="24" pan="0" len="6"/>
          <note vol="100" pos="810" key="0" pan="0" len="6"/>
          <note vol="100" pos="834" key="12" pan="0" len="6"/>
          <note vol="100" pos="846" key="12" pan="0" len="6"/>
          <note vol="100" pos="1086" key="12" pan="0" len="6"/>
          <note vol="100" pos="1098" key="12" pan="0" len="6"/>
          <note vol="100" pos="1122" key="24" pan="0" len="6"/>
          <note vol="100" pos="1146" key="36" pan="0" len="6"/>
          <note vol="100" pos="1170" key="12" pan="0" len="6"/>
          <note vol="100" pos="1194" key="36" pan="0" len="6"/>
          <note vol="100" pos="1218" key="24" pan="0" len="6"/>
          <note vol="100" pos="1470" key="24" pan="0" len="6"/>
          <note vol="100" pos="1482" key="12" pan="0" len="6"/>
          <note vol="100" pos="1494" key="36" pan="0" len="6"/>
          <note vol="100" pos="1506" key="0" pan="0" len="7"/>
          <note vol="100" pos="1518" key="24" pan="0" len="7"/>
          <note vol="100" pos="1530" key="12" pan="0" len="7"/>
          <note vol="100" pos="1542" key="36" pan="0" len="7"/>
          <note vol="100" pos="1554" key="24" pan="0" len="7"/>
          <note vol="100" pos="1566" key="12" pan="0" len="7"/>
          <note vol="100" pos="1578" key="0" pan="0" len="7"/>
          <note vol="100" pos="1590" key="24" pan="0" len="7"/>
          <note vol="100" pos="1602" key="12" pan="0" len="7"/>
          <note vol="100" pos="1638" key="12" pan="0" len="7"/>
          <note vol="100" pos="1650" key="0" pan="0" len="7"/>
          <note vol="100" pos="1686" key="24" pan="0" len="7"/>
          <note vol="100" pos="1698" key="38" pan="0" len="7"/>
          <note vol="100" pos="1794" key="38" pan="0" len="7"/>
          <note vol="100" pos="1854" key="24" pan="0" len="6"/>
          <note vol="100" pos="1878" key="12" pan="0" len="6"/>
          <note vol="100" pos="1902" key="36" pan="0" len="6"/>
          <note vol="100" pos="1926" key="36" pan="0" len="6"/>
          <note vol="100" pos="1938" key="13" pan="0" len="6"/>
          <note vol="100" pos="2148" key="24" pan="0" len="6"/>
          <note vol="100" pos="2148" key="12" pan="0" len="6"/>
          <note vol="100" pos="2178" key="38" pan="0" len="6"/>
          <note vol="100" pos="2178" key="2" pan="0" len="6"/>
          <note vol="100" pos="2226" key="38" pan="0" len="6"/>
          <note vol="100" pos="2226" key="2" pan="0" len="6"/>
          <note vol="100" pos="2298" key="36" pan="0" len="6"/>
          <note vol="100" pos="2334" key="12" pan="0" len="6"/>
          <note vol="100" pos="2370" key="36" pan="0" len="6"/>
          <note vol="100" pos="2406" key="12" pan="0" len="6"/>
          <note vol="100" pos="2442" key="36" pan="0" len="6"/>
          <note vol="100" pos="2490" key="12" pan="0" len="6"/>
          <note vol="100" pos="2502" key="36" pan="0" len="6"/>
          <note vol="100" pos="2526" key="24" pan="0" len="6"/>
          <note vol="100" pos="2538" key="0" pan="0" len="6"/>
          <note vol="100" pos="2562" key="36" pan="0" len="6"/>
          <note vol="100" pos="2562" key="0" pan="0" len="6"/>
          <note vol="100" pos="2682" key="24" pan="0" len="6"/>
          <note vol="100" pos="2718" key="36" pan="0" len="6"/>
          <note vol="100" pos="2754" key="12" pan="0" len="6"/>
          <note vol="100" pos="2790" key="24" pan="0" len="6"/>
          <note vol="100" pos="2790" key="12" pan="0" len="6"/>
          <note vol="100" pos="2874" key="36" pan="0" len="6"/>
          <note vol="100" pos="2886" key="24" pan="0" len="6"/>
          <note vol="100" pos="2910" key="24" pan="0" len="6"/>
          <note vol="100" pos="2946" key="36" pan="0" len="6"/>
          <note vol="100" pos="2946" key="0" pan="0" len="6"/>
          <note vol="100" pos="3060" key="24" pan="0" len="6"/>
          <note vol="100" pos="3096" key="0" pan="0" len="6"/>
          <note vol="100" pos="3138" key="24" pan="0" len="6"/>
          <note vol="100" pos="3174" key="36" pan="0" len="6"/>
          <note vol="100" pos="3258" key="36" pan="0" len="6"/>
          <note vol="100" pos="3270" key="12" pan="0" len="6"/>
          <note vol="100" pos="3294" key="26" pan="0" len="6"/>
          <note vol="100" pos="3294" key="14" pan="0" len="6"/>
          <note vol="100" pos="3330" key="26" pan="0" len="6"/>
          <note vol="100" pos="3330" key="14" pan="0" len="6"/>
          <note vol="100" pos="3450" key="36" pan="0" len="6"/>
          <note vol="100" pos="3486" key="24" pan="0" len="6"/>
          <note vol="100" pos="3522" key="0" pan="0" len="6"/>
          <note vol="100" pos="3558" key="24" pan="0" len="6"/>
          <note vol="100" pos="3642" key="24" pan="0" len="6"/>
          <note vol="100" pos="3654" key="0" pan="0" len="6"/>
          <note vol="100" pos="3666" key="36" pan="0" len="6"/>
          <note vol="100" pos="3690" key="24" pan="0" len="6"/>
          <note vol="100" pos="3714" key="12" pan="0" len="6"/>
          <note vol="100" pos="3738" key="36" pan="0" len="6"/>
          <note vol="100" pos="3762" key="36" pan="0" len="6"/>
          <note vol="100" pos="3786" key="36" pan="0" len="6"/>
          <note vol="100" pos="3810" key="36" pan="0" len="6"/>
          <note vol="100" pos="3834" key="36" pan="0" len="6"/>
          <note vol="100" pos="3858" key="24" pan="0" len="6"/>
          <note vol="100" pos="3882" key="24" pan="0" len="6"/>
          <note vol="100" pos="3906" key="24" pan="0" len="6"/>
          <note vol="100" pos="3930" key="24" pan="0" len="6"/>
          <note vol="100" pos="3954" key="24" pan="0" len="6"/>
          <note vol="100" pos="3978" key="12" pan="0" len="6"/>
          <note vol="100" pos="4002" key="12" pan="0" len="6"/>
          <note vol="100" pos="4026" key="12" pan="0" len="6"/>
          <note vol="100" pos="4050" key="12" pan="0" len="6"/>
          <note vol="100" pos="4074" key="12" pan="0" len="6"/>
          <note vol="100" pos="4098" key="36" pan="0" len="6"/>
          <note vol="100" pos="4098" key="12" pan="0" len="6"/>
          <note vol="100" pos="4122" key="2" pan="0" len="6"/>
          <note vol="100" pos="4194" key="26" pan="0" len="6"/>
          <note vol="100" pos="4194" key="2" pan="0" len="6"/>
          <note vol="100" pos="4266" key="26" pan="0" len="6"/>
          <note vol="100" pos="4278" key="38" pan="0" len="6"/>
          <note vol="100" pos="4278" key="14" pan="0" len="6"/>
          <note vol="100" pos="4362" key="38" pan="0" len="6"/>
          <note vol="100" pos="4362" key="14" pan="0" len="6"/>
          <note vol="100" pos="4386" key="24" pan="0" len="6"/>
          <note vol="100" pos="4386" key="0" pan="0" len="6"/>
          <note vol="100" pos="4482" key="36" pan="0" len="6"/>
          <note vol="100" pos="4518" key="36" pan="0" len="6"/>
          <note vol="100" pos="4548" key="12" pan="0" len="6"/>
          <note vol="100" pos="4578" key="12" pan="0" len="6"/>
          <note vol="100" pos="4614" key="24" pan="0" len="6"/>
          <note vol="100" pos="4650" key="24" pan="0" len="6"/>
          <note vol="100" pos="4674" key="36" pan="0" len="6"/>
          <note vol="100" pos="4674" key="12" pan="0" len="6"/>
          <note vol="100" pos="4698" key="36" pan="0" len="6"/>
          <note vol="100" pos="4698" key="12" pan="0" len="6"/>
          <note vol="100" pos="4722" key="36" pan="0" len="6"/>
          <note vol="100" pos="4722" key="12" pan="0" len="6"/>
          <note vol="100" pos="4746" key="36" pan="0" len="6"/>
          <note vol="100" pos="4746" key="12" pan="0" len="6"/>
          <note vol="100" pos="4770" key="36" pan="0" len="6"/>
          <note vol="100" pos="4770" key="12" pan="0" len="6"/>
          <note vol="100" pos="4794" key="36" pan="0" len="6"/>
          <note vol="100" pos="4794" key="12" pan="0" len="6"/>
          <note vol="100" pos="4818" key="36" pan="0" len="6"/>
          <note vol="100" pos="4818" key="12" pan="0" len="6"/>
          <note vol="100" pos="4842" key="36" pan="0" len="6"/>
          <note vol="100" pos="4842" key="12" pan="0" len="6"/>
          <note vol="100" pos="4854" key="24" pan="0" len="6"/>
          <note vol="100" pos="4866" key="24" pan="0" len="6"/>
          <note vol="100" pos="4866" key="0" pan="0" len="6"/>
          <note vol="100" pos="4890" key="24" pan="0" len="6"/>
          <note vol="100" pos="4890" key="0" pan="0" len="6"/>
          <note vol="100" pos="4914" key="24" pan="0" len="6"/>
          <note vol="100" pos="4914" key="0" pan="0" len="6"/>
          <note vol="100" pos="4938" key="24" pan="0" len="6"/>
          <note vol="100" pos="4938" key="0" pan="0" len="6"/>
          <note vol="100" pos="4962" key="24" pan="0" len="6"/>
          <note vol="100" pos="4962" key="0" pan="0" len="6"/>
          <note vol="100" pos="4986" key="24" pan="0" len="6"/>
          <note vol="100" pos="4986" key="0" pan="0" len="6"/>
          <note vol="100" pos="5010" key="24" pan="0" len="6"/>
          <note vol="100" pos="5010" key="0" pan="0" len="6"/>
          <note vol="100" pos="5034" key="24" pan="0" len="6"/>
          <note vol="100" pos="5034" key="0" pan="0" len="6"/>
          <note vol="100" pos="5058" key="24" pan="0" len="6"/>
          <note vol="100" pos="5058" key="0" pan="0" len="6"/>
          <note vol="100" pos="5082" key="24" pan="0" len="6"/>
          <note vol="100" pos="5082" key="0" pan="0" len="6"/>
          <note vol="100" pos="5106" key="24" pan="0" len="6"/>
          <note vol="100" pos="5106" key="0" pan="0" len="6"/>
          <note vol="100" pos="5130" key="24" pan="0" len="6"/>
          <note vol="100" pos="5130" key="0" pan="0" len="6"/>
          <note vol="100" pos="5154" key="24" pan="0" len="6"/>
          <note vol="100" pos="5154" key="0" pan="0" len="6"/>
          <note vol="100" pos="5178" key="24" pan="0" len="6"/>
          <note vol="100" pos="5178" key="0" pan="0" len="6"/>
          <note vol="100" pos="5202" key="24" pan="0" len="6"/>
          <note vol="100" pos="5202" key="0" pan="0" len="6"/>
          <note vol="100" pos="5226" key="24" pan="0" len="6"/>
          <note vol="100" pos="5238" key="12" pan="0" len="6"/>
          <note vol="100" pos="5250" key="36" pan="0" len="6"/>
          <note vol="100" pos="5250" key="0" pan="0" len="6"/>
          <note vol="100" pos="5274" key="36" pan="0" len="6"/>
          <note vol="100" pos="5274" key="0" pan="0" len="6"/>
          <note vol="100" pos="5298" key="36" pan="0" len="6"/>
          <note vol="100" pos="5298" key="0" pan="0" len="6"/>
          <note vol="100" pos="5322" key="36" pan="0" len="6"/>
          <note vol="100" pos="5322" key="0" pan="0" len="6"/>
          <note vol="100" pos="5346" key="36" pan="0" len="6"/>
          <note vol="100" pos="5346" key="0" pan="0" len="6"/>
          <note vol="100" pos="5370" key="36" pan="0" len="6"/>
          <note vol="100" pos="5370" key="24" pan="0" len="6"/>
          <note vol="100" pos="5370" key="0" pan="0" len="6"/>
          <note vol="100" pos="5394" key="36" pan="0" len="6"/>
          <note vol="100" pos="5394" key="24" pan="0" len="6"/>
          <note vol="100" pos="5394" key="0" pan="0" len="6"/>
          <note vol="100" pos="5418" key="36" pan="0" len="6"/>
          <note vol="100" pos="5418" key="24" pan="0" len="6"/>
          <note vol="100" pos="5418" key="0" pan="0" len="6"/>
          <note vol="100" pos="5442" key="36" pan="0" len="6"/>
          <note vol="100" pos="5442" key="24" pan="0" len="6"/>
          <note vol="100" pos="5442" key="0" pan="0" len="6"/>
          <note vol="100" pos="5466" key="36" pan="0" len="6"/>
          <note vol="100" pos="5466" key="24" pan="0" len="6"/>
          <note vol="100" pos="5466" key="0" pan="0" len="6"/>
          <note vol="100" pos="5490" key="36" pan="0" len="6"/>
          <note vol="100" pos="5490" key="12" pan="0" len="6"/>
          <note vol="100" pos="5490" key="0" pan="0" len="6"/>
          <note vol="100" pos="5514" key="36" pan="0" len="6"/>
          <note vol="100" pos="5514" key="12" pan="0" len="6"/>
          <note vol="100" pos="5514" key="0" pan="0" len="6"/>
          <note vol="100" pos="5538" key="36" pan="0" len="6"/>
          <note vol="100" pos="5538" key="12" pan="0" len="6"/>
          <note vol="100" pos="5538" key="0" pan="0" len="6"/>
          <note vol="100" pos="5562" key="36" pan="0" len="6"/>
          <note vol="100" pos="5562" key="12" pan="0" len="6"/>
          <note vol="100" pos="5562" key="0" pan="0" len="6"/>
          <note vol="100" pos="5586" key="36" pan="0" len="6"/>
          <note vol="100" pos="5586" key="12" pan="0" len="6"/>
          <note vol="100" pos="5586" key="0" pan="0" len="6"/>
          <note vol="100" pos="5610" key="36" pan="0" len="6"/>
          <note vol="100" pos="5610" key="12" pan="0" len="6"/>
          <note vol="100" pos="5610" key="0" pan="0" len="6"/>
          <note vol="100" pos="5622" key="0" pan="0" len="6"/>
          <note vol="100" pos="5634" key="0" pan="0" len="6"/>
          <note vol="100" pos="5658" key="24" pan="0" len="6"/>
          <note vol="100" pos="5658" key="12" pan="0" len="6"/>
          <note vol="100" pos="5682" key="24" pan="0" len="6"/>
          <note vol="100" pos="5682" key="12" pan="0" len="6"/>
          <note vol="100" pos="5706" key="24" pan="0" len="6"/>
          <note vol="100" pos="5706" key="12" pan="0" len="6"/>
          <note vol="100" pos="5730" key="24" pan="0" len="6"/>
          <note vol="100" pos="5730" key="12" pan="0" len="6"/>
          <note vol="100" pos="5754" key="24" pan="0" len="6"/>
          <note vol="100" pos="5754" key="12" pan="0" len="6"/>
          <note vol="100" pos="5778" key="36" pan="0" len="6"/>
          <note vol="100" pos="5778" key="0" pan="0" len="6"/>
          <note vol="100" pos="5802" key="36" pan="0" len="6"/>
          <note vol="100" pos="5802" key="0" pan="0" len="6"/>
          <note vol="100" pos="5826" key="36" pan="0" len="6"/>
          <note vol="100" pos="5826" key="0" pan="0" len="6"/>
          <note vol="100" pos="5850" key="36" pan="0" len="6"/>
          <note vol="100" pos="5850" key="0" pan="0" len="6"/>
          <note vol="100" pos="5874" key="36" pan="0" len="6"/>
          <note vol="100" pos="5874" key="0" pan="0" len="6"/>
          <note vol="100" pos="5898" key="36" pan="0" len="6"/>
          <note vol="100" pos="5898" key="0" pan="0" len="6"/>
          <note vol="100" pos="5922" key="36" pan="0" len="6"/>
          <note vol="100" pos="5922" key="0" pan="0" len="6"/>
          <note vol="100" pos="5946" key="36" pan="0" len="6"/>
          <note vol="100" pos="5946" key="0" pan="0" len="6"/>
          <note vol="100" pos="5970" key="36" pan="0" len="6"/>
          <note vol="100" pos="5970" key="0" pan="0" len="6"/>
          <note vol="100" pos="5994" key="36" pan="0" len="6"/>
          <note vol="100" pos="5994" key="0" pan="0" len="6"/>
          <note vol="100" pos="6018" key="26" pan="0" len="6"/>
          <note vol="100" pos="6018" key="14" pan="0" len="6"/>
          <note vol="100" pos="6402" key="26" pan="0" len="6"/>
          <note vol="100" pos="6402" key="14" pan="0" len="6"/>
        </pattern>
      </track>
    </trackcontainer>
    <track solo="0" muted="0" type="6" name="Automation track">
      <automationtrack/>
      <automationpattern mute="0" pos="0" prog="0" len="192" name="Numerator" tens="1"/>
      <automationpattern mute="0" pos="0" prog="0" len="192" name="Denominator" tens="1"/>
      <automationpattern mute="0" pos="0" prog="0" len="192" name="Tempo" tens="1"/>
      <automationpattern mute="0" pos="0" prog="0" len="192" name="Master volume" tens="1"/>
      <automationpattern mute="0" pos="0" prog="0" len="192" name="Master pitch" tens="1"/>
    </track>
    <fxmixer x="1" visible="0" minimized="0" width="543" height="333" y="314" maximized="0">
      <fxchannel soloed="0" volume="1.002" num="0" muted="0" name="Master">
        <fxchain numofeffects="0" enabled="0"/>
      </fxchannel>
    </fxmixer>
    <ControllerRackView x="661" visible="1" minimized="0" width="350" height="200" y="314" maximized="0"/>
    <pianoroll x="48" visible="1" minimized="0" width="2264" height="803" y="330" maximized="0"/>
    <automationeditor x="1" visible="0" minimized="0" width="860" height="400" y="5" maximized="0"/>
    <projectnotes x="681" visible="0" minimized="0" width="687" height="400" y="14" maximized="0"><![CDATA[<!DOCTYPE HTML PUBLIC "-//W3C//DTD HTML 4.0//EN" "http://www.w3.org/TR/REC-html40/strict.dtd">
<html><head><meta name="qrichtext" content="1" /><style type="text/css">
p, li { white-space: pre-wrap; }
</style></head><body style=" font-family:'MS Shell Dlg 2'; font-size:8.25pt; font-weight:400; font-style:normal;">
<p style="-qt-paragraph-type:empty; margin-top:0px; margin-bottom:0px; margin-left:0px; margin-right:0px; -qt-block-indent:0; text-indent:0px;"><br /></p></body></html>]]></projectnotes>
    <timeline lp1pos="192" lpstate="0" lp0pos="0"/>
    <controllers/>
  </song>
</lmms-project>
